<svg xmlns="http://www.w3.org/2000/svg" width="1920" height="1080" viewBox="0 0 1920 1080" fill="none">
  <defs>
    <linearGradient id="bg" x1="0" y1="0" x2="1" y2="1">
      <stop offset="0%" stop-color="#EEF2FF"/>
      <stop offset="100%" stop-color="#E0E7FF"/>
    </linearGradient>
    <linearGradient id="card" x1="0" y1="0" x2="0" y2="1">
      <stop offset="0%" stop-color="#FFFFFF" stop-opacity="0.98"/>
      <stop offset="100%" stop-color="#F8FAFC" stop-opacity="0.98"/>
    </linearGradient>
    <linearGradient id="line" x1="0" y1="0" x2="1" y2="0">
      <stop offset="0%" stop-color="#6366F1"/>
      <stop offset="100%" stop-color="#4F46E5"/>
    </linearGradient>
    <filter id="shadow" x="0" y="0" width="200%" height="200%">
      <feDropShadow dx="0" dy="20" stdDeviation="30" flood-color="#1E1B4B" flood-opacity="0.16"/>
    </filter>
    <clipPath id="clip-revenue-card">
      <rect x="200" y="240" width="460" height="300" rx="20"/>
    </clipPath>
    <clipPath id="clip-acquisition-card">
      <rect x="710" y="240" width="460" height="300" rx="20"/>
    </clipPath>
    <clipPath id="clip-pipeline-card">
      <rect x="1220" y="240" width="500" height="300" rx="20"/>
    </clipPath>
    <clipPath id="clip-timeline-card">
      <rect x="200" y="590" width="1520" height="300" rx="20"/>
    </clipPath>
  </defs>

  <rect width="1920" height="1080" fill="url(#bg)"/>
  <circle cx="1610" cy="180" r="220" fill="#C7D2FE" fill-opacity="0.45"/>
  <circle cx="250" cy="960" r="280" fill="#C7D2FE" fill-opacity="0.35"/>

  <g filter="url(#shadow)">
    <rect x="140" y="110" width="1640" height="860" rx="36" fill="url(#card)"/>
  </g>

  <rect x="140" y="110" width="1640" height="78" rx="36" fill="#4F46E5"/>
  <circle cx="198" cy="149" r="8" fill="#C7D2FE"/>
  <circle cx="230" cy="149" r="8" fill="#A5B4FC"/>
  <circle cx="262" cy="149" r="8" fill="#818CF8"/>
  <text x="320" y="157" fill="#FFFFFF" font-size="30" font-family="Inter, Arial, sans-serif" font-weight="700">Exly Growth Command Center</text>

  <rect x="200" y="240" width="460" height="300" rx="20" fill="#FFFFFF" stroke="#E2E8F0"/>
  <text x="236" y="290" fill="#0F172A" font-size="28" font-family="Inter, Arial, sans-serif" font-weight="700">Revenue</text>
  <text x="236" y="340" fill="#0F172A" font-size="52" font-family="Inter, Arial, sans-serif" font-weight="800">₹4,74,100</text>
  <g clip-path="url(#clip-revenue-card)">
    <text x="522" y="344" fill="#10B981" font-size="32" font-family="Inter, Arial, sans-serif" font-weight="700">+573%</text>
    <path d="M236 470 C300 430 350 440 410 390 C450 360 472 378 504 334" stroke="url(#line)" stroke-width="8" fill="none" stroke-linecap="round"/>
    <circle cx="504" cy="334" r="10" fill="#4F46E5"/>
  </g>

  <rect x="710" y="240" width="460" height="300" rx="20" fill="#FFFFFF" stroke="#E2E8F0"/>
  <g clip-path="url(#clip-acquisition-card)">
    <text x="746" y="290" fill="#0F172A" font-size="28" font-family="Inter, Arial, sans-serif" font-weight="700">Acquisition Channels</text>
    <rect x="746" y="330" width="170" height="22" rx="11" fill="#6366F1"/>
    <rect x="746" y="372" width="220" height="22" rx="11" fill="#818CF8"/>
    <rect x="746" y="414" width="142" height="22" rx="11" fill="#A5B4FC"/>
    <text x="940" y="346" fill="#334155" font-size="20" font-family="Inter, Arial, sans-serif">Meta Ads</text>
    <text x="990" y="388" fill="#334155" font-size="20" font-family="Inter, Arial, sans-serif">Google Ads</text>
    <text x="912" y="430" fill="#334155" font-size="20" font-family="Inter, Arial, sans-serif">Organic</text>
  </g>

  <rect x="1220" y="240" width="500" height="300" rx="20" fill="#FFFFFF" stroke="#E2E8F0"/>
  <g clip-path="url(#clip-pipeline-card)">
    <text x="1256" y="290" fill="#0F172A" font-size="28" font-family="Inter, Arial, sans-serif" font-weight="700">Pipeline Health</text>
    <circle cx="1420" cy="424" r="96" fill="none" stroke="#E2E8F0" stroke-width="24"/>
    <circle cx="1420" cy="424" r="96" fill="none" stroke="#10B981" stroke-width="24" stroke-dasharray="430 610" transform="rotate(-90 1420 424)" stroke-linecap="round"/>
    <text x="1378" y="434" fill="#0F172A" font-size="36" font-family="Inter, Arial, sans-serif" font-weight="800">68%</text>
    <text x="1540" y="406" fill="#334155" font-size="22" font-family="Inter, Arial, sans-serif">Qualified Leads</text>
    <text x="1540" y="442" fill="#334155" font-size="22" font-family="Inter, Arial, sans-serif">SQL to Sale</text>
  </g>

  <rect x="200" y="590" width="1520" height="300" rx="20" fill="#FFFFFF" stroke="#E2E8F0"/>
  <g clip-path="url(#clip-timeline-card)">
    <text x="236" y="640" fill="#0F172A" font-size="28" font-family="Inter, Arial, sans-serif" font-weight="700">Funnel Performance Timeline</text>
    <path d="M236 820 L1660 820" stroke="#CBD5E1" stroke-width="2"/>
    <path d="M236 760 L1660 760" stroke="#E2E8F0" stroke-width="1.6" stroke-dasharray="6 10"/>
    <path d="M236 700 L1660 700" stroke="#E2E8F0" stroke-width="1.6" stroke-dasharray="6 10"/>
    <path d="M236 640 L1660 640" stroke="#E2E8F0" stroke-width="1.6" stroke-dasharray="6 10"/>
    <path d="M250 790 C380 748 520 764 650 724 C760 694 860 712 980 682 C1110 654 1230 666 1370 636 C1460 620 1540 614 1640 652" stroke="#4F46E5" stroke-width="7" fill="none" stroke-linecap="round"/>
    <path d="M250 808 C380 786 520 792 650 768 C760 748 860 760 980 738 C1110 720 1230 728 1370 702 C1460 686 1540 692 1640 668" stroke="#10B981" stroke-width="6" fill="none" stroke-linecap="round"/>
  </g>
  <text x="236" y="866" fill="#475569" font-size="18" font-family="Inter, Arial, sans-serif">Jan</text>
  <text x="520" y="866" fill="#475569" font-size="18" font-family="Inter, Arial, sans-serif">Mar</text>
  <text x="804" y="866" fill="#475569" font-size="18" font-family="Inter, Arial, sans-serif">May</text>
  <text x="1088" y="866" fill="#475569" font-size="18" font-family="Inter, Arial, sans-serif">Jul</text>
  <text x="1372" y="866" fill="#475569" font-size="18" font-family="Inter, Arial, sans-serif">Sep</text>
  <text x="1590" y="866" fill="#475569" font-size="18" font-family="Inter, Arial, sans-serif">Nov</text>
</svg>
