<svg xmlns="http://www.w3.org/2000/svg" width="1920" height="1080" viewBox="0 0 1920 1080" fill="none">
  <defs>
    <linearGradient id="bg3" x1="0" y1="0" x2="1" y2="1">
      <stop offset="0%" stop-color="#EEF2FF"/>
      <stop offset="100%" stop-color="#F8FAFC"/>
    </linearGradient>
    <filter id="shadow3" x="0" y="0" width="200%" height="200%">
      <feDropShadow dx="0" dy="20" stdDeviation="28" flood-color="#1E1B4B" flood-opacity="0.14"/>
    </filter>
  </defs>
  <rect width="1920" height="1080" fill="url(#bg3)"/>

  <rect x="160" y="120" width="1600" height="840" rx="34" fill="#FFFFFF" filter="url(#shadow3)"/>
  <rect x="160" y="120" width="1600" height="88" rx="34" fill="#312E81"/>
  <text x="230" y="174" fill="#FFFFFF" font-size="32" font-family="Inter, Arial, sans-serif" font-weight="700">Revenue Operations Workspace</text>

  <rect x="220" y="260" width="460" height="640" rx="24" fill="#F8FAFC" stroke="#E2E8F0"/>
  <text x="260" y="318" fill="#0F172A" font-size="30" font-family="Inter, Arial, sans-serif" font-weight="700">Automation Queue</text>
  <rect x="260" y="356" width="380" height="94" rx="16" fill="#FFFFFF" stroke="#E2E8F0"/>
  <text x="292" y="410" fill="#1E293B" font-size="24" font-family="Inter, Arial, sans-serif" font-weight="600">Lead Nurture Flow</text>
  <rect x="260" y="474" width="380" height="94" rx="16" fill="#FFFFFF" stroke="#E2E8F0"/>
  <text x="292" y="528" fill="#1E293B" font-size="24" font-family="Inter, Arial, sans-serif" font-weight="600">Checkout Recovery</text>
  <rect x="260" y="592" width="380" height="94" rx="16" fill="#FFFFFF" stroke="#E2E8F0"/>
  <text x="292" y="646" fill="#1E293B" font-size="24" font-family="Inter, Arial, sans-serif" font-weight="600">Upsell Trigger</text>
  <rect x="260" y="710" width="380" height="94" rx="16" fill="#FFFFFF" stroke="#E2E8F0"/>
  <text x="292" y="764" fill="#1E293B" font-size="24" font-family="Inter, Arial, sans-serif" font-weight="600">Retention Sequence</text>

  <rect x="730" y="260" width="970" height="300" rx="24" fill="#EEF2FF" stroke="#C7D2FE"/>
  <text x="770" y="320" fill="#312E81" font-size="30" font-family="Inter, Arial, sans-serif" font-weight="700">Revenue Snapshot</text>
  <text x="770" y="388" fill="#0F172A" font-size="64" font-family="Inter, Arial, sans-serif" font-weight="800">₹4,80,123</text>
  <text x="1140" y="388" fill="#10B981" font-size="40" font-family="Inter, Arial, sans-serif" font-weight="700">+623%</text>
  <rect x="770" y="430" width="280" height="58" rx="14" fill="#FFFFFF"/>
  <text x="804" y="468" fill="#1E293B" font-size="24" font-family="Inter, Arial, sans-serif" font-weight="600">No Revenue Share</text>
  <rect x="1070" y="430" width="280" height="58" rx="14" fill="#FFFFFF"/>
  <text x="1104" y="468" fill="#1E293B" font-size="24" font-family="Inter, Arial, sans-serif" font-weight="600">Fixed Fee Model</text>

  <rect x="730" y="600" width="970" height="300" rx="24" fill="#F8FAFC" stroke="#E2E8F0"/>
  <text x="770" y="660" fill="#0F172A" font-size="30" font-family="Inter, Arial, sans-serif" font-weight="700">Creator Revenue Trend</text>
  <path d="M770 828 L1660 828" stroke="#CBD5E1" stroke-width="2"/>
  <path d="M770 770 L1660 770" stroke="#E2E8F0" stroke-width="1.4" stroke-dasharray="6 10"/>
  <path d="M770 712 L1660 712" stroke="#E2E8F0" stroke-width="1.4" stroke-dasharray="6 10"/>
  <path d="M790 810 C910 786 998 794 1110 748 C1218 704 1310 710 1434 684 C1510 668 1588 656 1640 642" stroke="#4F46E5" stroke-width="8" fill="none" stroke-linecap="round"/>
  <circle cx="1640" cy="642" r="10" fill="#4F46E5"/>
</svg>
