<svg xmlns="http://www.w3.org/2000/svg" width="1920" height="760" viewBox="0 0 1920 760" fill="none">
  <defs>
    <linearGradient id="bg" x1="0" y1="0" x2="1" y2="1">
      <stop offset="0%" stop-color="#EEF2FF"/>
      <stop offset="100%" stop-color="#F8FAFC"/>
    </linearGradient>
    <linearGradient id="purple" x1="0" y1="0" x2="1" y2="0">
      <stop offset="0%" stop-color="#6366F1"/>
      <stop offset="100%" stop-color="#4338CA"/>
    </linearGradient>
    <linearGradient id="gold" x1="0" y1="0" x2="1" y2="1">
      <stop offset="0%" stop-color="#FDE68A"/>
      <stop offset="100%" stop-color="#FCD34D"/>
    </linearGradient>
    <linearGradient id="mint" x1="0" y1="0" x2="1" y2="0">
      <stop offset="0%" stop-color="#34D399"/>
      <stop offset="100%" stop-color="#10B981"/>
    </linearGradient>
    <filter id="shadow" x="0" y="0" width="220%" height="220%">
      <feDropShadow dx="0" dy="18" stdDeviation="24" flood-color="#1E1B4B" flood-opacity="0.16"/>
    </filter>
  </defs>

  <rect width="1920" height="760" rx="34" fill="url(#bg)"/>

  <g transform="translate(70 114)" filter="url(#shadow)">
    <rect x="0" y="0" width="280" height="380" rx="34" fill="#FFFFFF" stroke="#CBD5E1" stroke-width="2"/>
    <rect x="22" y="20" width="236" height="16" rx="8" fill="#E2E8F0"/>
    <text x="36" y="102" fill="#0F172A" font-size="38" font-family="Inter, Arial, sans-serif" font-weight="700">₹65,000</text>
    <text x="36" y="148" fill="#475569" font-size="25" font-family="Inter, Arial, sans-serif">Payout received</text>
    <rect x="34" y="246" width="212" height="78" rx="18" fill="url(#mint)"/>
    <text x="80" y="295" fill="#FFFFFF" font-size="30" font-family="Inter, Arial, sans-serif" font-weight="700">Collect</text>
  </g>

  <g transform="translate(390 150)" filter="url(#shadow)">
    <rect x="0" y="0" width="360" height="250" rx="30" fill="#FFFFFF" stroke="#CBD5E1" stroke-width="2"/>
    <text x="42" y="76" fill="#4F46E5" font-size="56" font-family="Inter, Arial, sans-serif" font-weight="800">Meta</text>
    <text x="42" y="132" fill="#334155" font-size="34" font-family="Inter, Arial, sans-serif" font-weight="700">₹3,612</text>
    <rect x="190" y="104" width="132" height="48" rx="12" fill="#34D399"/>
    <text x="205" y="137" fill="#FFFFFF" font-size="28" font-family="Inter, Arial, sans-serif" font-weight="700">+8.8%</text>
  </g>

  <g transform="translate(740 165)" filter="url(#shadow)">
    <rect x="0" y="0" width="760" height="310" rx="30" fill="#FFFFFF" stroke="#CBD5E1" stroke-width="2"/>
    <text x="42" y="86" fill="#0F172A" font-size="64" font-family="Inter, Arial, sans-serif" font-weight="800">500+</text>
    <text x="298" y="86" fill="#334155" font-size="52" font-family="Inter, Arial, sans-serif">New Leads</text>
    <text x="42" y="154" fill="#334155" font-size="52" font-family="Inter, Arial, sans-serif">4.8x ROAS</text>
    <text x="42" y="258" fill="#0F172A" font-size="64" font-family="Inter, Arial, sans-serif" font-weight="800">₹65,000</text>
    <path d="M430 220 C490 188 544 202 596 168 C648 132 694 148 742 104" stroke="#EF4444" stroke-width="12" fill="none" stroke-linecap="round"/>
    <path d="M430 252 H742" stroke="#CBD5E1" stroke-width="2"/>
    <circle cx="742" cy="104" r="11" fill="#EF4444"/>
  </g>

  <g transform="translate(1544 95)" filter="url(#shadow)">
    <rect x="0" y="0" width="320" height="360" rx="34" fill="url(#gold)" stroke="#F59E0B" stroke-opacity="0.45" stroke-width="2"/>
    <text x="54" y="96" fill="#111827" font-size="72" font-family="Inter, Arial, sans-serif" font-weight="900">0%</text>
    <text x="54" y="166" fill="#111827" font-size="64" font-family="Inter, Arial, sans-serif" font-weight="900">CUT</text>
    <text x="54" y="246" fill="#111827" font-size="48" font-family="Inter, Arial, sans-serif" font-weight="800">YOU KEEP</text>
    <text x="54" y="320" fill="#111827" font-size="72" font-family="Inter, Arial, sans-serif" font-weight="900">100%</text>
  </g>

  <g transform="translate(1418 510)" filter="url(#shadow)">
    <rect x="0" y="0" width="440" height="92" rx="20" fill="url(#mint)"/>
    <text x="34" y="60" fill="#FFFFFF" font-size="46" font-family="Inter, Arial, sans-serif" font-weight="800">+500% in 60 days</text>
  </g>

  <g transform="translate(356 410)" filter="url(#shadow)">
    <rect x="0" y="0" width="260" height="122" rx="10" fill="#FFFFFF" stroke="#CBD5E1"/>
    <path d="M18 92 L240 34" stroke="#334155" stroke-opacity="0.15" stroke-width="2"/>
    <path d="M18 96 L160 54" stroke="#334155" stroke-opacity="0.1" stroke-width="2"/>
  </g>
</svg>
